<svg viewBox="0 0 59.943 12.5003" fill="none" xmlns="http://www.w3.org/2000/svg" aria-hidden="true">
  <g>
    <path d="M8.79275 0.25H3.40025C1.66025 0.25 0.25 1.6605 0.25 3.4005V8.7925C0.25 10.5325 1.6605 11.943 3.4005 11.943H8.7925C10.5325 11.943 11.943 10.5325 11.943 8.7925V3.4005C11.943 1.6605 10.5327 0.25 8.79275 0.25Z" stroke="#564739" stroke-width="0.5" stroke-miterlimit="10"/>
    <path d="M6.09655 8.91941C7.65537 8.91941 8.91905 7.65574 8.91905 6.09691C8.91905 4.53809 7.65537 3.27441 6.09655 3.27441C4.53772 3.27441 3.27405 4.53809 3.27405 6.09691C3.27405 7.65574 4.53772 8.91941 6.09655 8.91941Z" stroke="#564739" stroke-width="0.5" stroke-miterlimit="10"/>
    <path d="M9.52356 2.18945C9.78843 2.18945 10.0039 2.40411 10.004 2.66895C10.004 2.9339 9.78852 3.14941 9.52356 3.14941C9.25872 3.14928 9.04407 2.93382 9.04407 2.66895C9.04421 2.40419 9.25881 2.18959 9.52356 2.18945Z" fill="#564739" stroke="#564739" stroke-width="0.25"/>
    <path d="M29.9339 8.83282L31.8791 11.0854C32.5991 11.9195 32.9597 12.3369 33.3371 12.2349C33.7139 12.1334 33.8435 11.5846 34.1021 10.4865L35.5361 4.39494C35.9351 2.70339 36.1343 1.85823 35.6915 1.44084C35.2487 1.02345 34.4813 1.3339 32.9465 1.95417L25.8268 4.83433C24.5992 5.33116 23.9854 5.57927 23.9464 6.00583C23.9418 6.04929 23.9418 6.09314 23.9464 6.1366C23.9842 6.56377 24.5968 6.81371 25.8232 7.31421C26.3782 7.54093 26.6561 7.6546 26.8553 7.87154C26.8777 7.89599 26.8993 7.92125 26.9201 7.94732C27.1037 8.17954 27.1817 8.4851 27.3383 9.09376L27.6317 10.2347C27.7835 10.8275 27.8597 11.1245 28.0595 11.1648C28.2593 11.2051 28.4327 10.9595 28.7801 10.4675L29.9339 8.83282ZM29.9339 8.83282L29.7437 8.63115C29.5265 8.40015 29.4179 8.28526 29.4179 8.14226C29.4179 7.99926 29.5259 7.88376 29.7437 7.65338L31.8875 5.37761" stroke="#564739" stroke-width="0.5" stroke-linecap="round" stroke-linejoin="round"/>
    <path d="M53.9469 0.400391C54.708 0.397634 55.4625 0.545804 56.1656 0.836914C56.8686 1.12799 57.5065 1.556 58.0426 2.0957L58.0446 2.09668C58.5937 2.63642 59.0306 3.27941 59.3307 3.98828C59.6308 4.69725 59.7875 5.45875 59.7926 6.22852C59.7785 7.77027 59.156 9.24458 58.0602 10.3301C56.9639 11.4159 55.4826 12.0245 53.9391 12.0244C52.9686 12.0172 52.0152 11.7663 51.1676 11.2939L51.1149 11.2646L51.0573 11.2803L48.1549 12.0381L48.9283 9.20703L48.9449 9.14648L48.9137 9.09277C48.4074 8.2105 48.1422 7.21041 48.1442 6.19336C48.1462 5.17656 48.4149 4.17798 48.9244 3.29785C49.4341 2.41753 50.1671 1.68629 51.0485 1.17773C51.8195 0.732887 52.681 0.472066 53.566 0.413086L53.9469 0.400391ZM54.234 1.13086C52.9867 1.06439 51.7586 1.45732 50.7819 2.23535C49.8051 3.01342 49.1475 4.12252 48.9342 5.35254C48.721 6.58245 48.9659 7.84804 49.6237 8.90918L49.6256 8.91113L49.7096 9.04199L49.2321 10.8008L49.1637 11.0518L49.4147 10.9854L51.2203 10.5068L51.3453 10.585L51.3492 10.5869C52.1358 11.052 53.033 11.2977 53.9469 11.2979C55.3042 11.2979 56.6068 10.7615 57.5709 9.80664C58.5348 8.85189 59.083 7.55546 59.0953 6.19922V6.19531C59.076 4.83833 58.5193 3.54452 57.5485 2.5957H57.5494C56.661 1.71823 55.4813 1.19734 54.234 1.13086ZM52.1188 3.57227L52.1676 3.57324C52.1816 3.57331 52.1908 3.57374 52.1998 3.57422C52.2157 3.57505 52.2231 3.57684 52.2281 3.5791C52.2353 3.58239 52.276 3.60348 52.3297 3.73438C52.3904 3.88229 52.506 4.14338 52.6041 4.37012C52.6538 4.48478 52.6994 4.59098 52.7321 4.67285C52.7485 4.71398 52.7609 4.74728 52.7692 4.77148C52.7724 4.78106 52.7746 4.7881 52.776 4.79297V4.81641L52.7926 4.84961C52.8025 4.86871 52.8082 4.88964 52.8082 4.91113C52.8082 4.93276 52.8026 4.95443 52.7926 4.97363V4.97461C52.6613 5.23356 52.5289 5.35563 52.4332 5.45801C52.389 5.50532 52.329 5.57156 52.3073 5.6582C52.2825 5.75704 52.3126 5.84747 52.3619 5.92969C52.8259 6.75458 53.5584 7.39541 54.4371 7.74707C54.5154 7.80314 54.6031 7.84837 54.6989 7.84668C54.8129 7.84461 54.8939 7.77908 54.9498 7.70801L54.9489 7.70703C55.0323 7.61565 55.1147 7.52342 55.193 7.42773L55.4264 7.12598L55.4313 7.11914C55.4476 7.09412 55.4591 7.08384 55.4645 7.08008C55.4685 7.07735 55.4713 7.07657 55.4752 7.07617C55.4812 7.07559 55.493 7.07532 55.5143 7.08008C55.5362 7.08499 55.5613 7.09314 55.5953 7.10449C55.6512 7.1231 55.8556 7.21852 56.0787 7.32617C56.2955 7.43074 56.5138 7.53983 56.5885 7.57715C56.6711 7.61841 56.7241 7.64125 56.7731 7.66797C56.7961 7.68053 56.8136 7.69177 56.8278 7.70215C56.8529 7.89472 56.8257 8.08997 56.7457 8.26758C56.6496 8.42623 56.5223 8.56376 56.3707 8.6709C56.2177 8.77896 56.0435 8.8533 55.86 8.89062C55.3472 8.94834 54.8303 8.86067 54.3678 8.63867L54.1725 8.53516L54.1647 8.53125L53.7946 8.3291C52.9491 7.83192 52.2245 7.15005 51.6774 6.33203V6.33105L51.6705 6.32129L51.5524 6.16113C51.3284 5.83169 51.1797 5.4569 51.1178 5.06348L51.0944 4.86523C51.0838 4.6538 51.1179 4.44236 51.1949 4.24512C51.2725 4.04659 51.392 3.86673 51.5446 3.71777L51.5504 3.71191L51.5553 3.70605C51.5901 3.66476 51.6334 3.63146 51.6823 3.6084C51.7066 3.5969 51.7323 3.58804 51.7584 3.58203L51.8395 3.57227H52.1188Z" fill="#564739" stroke="#EFE9E3" stroke-width="0.3"/>
  </g>
</svg>
